<svg width="222" height="76" viewBox="0 0 222 76" fill="none" xmlns="http://www.w3.org/2000/svg">
<g clip-path="url(#clip0_96_6)">
<path d="M69.9261 71.2936C68.7806 69.3624 67.8514 66.3238 67.1367 62.1744L57.5257 1.5244C57.2831 -0.00398365 55.2843 -0.428168 54.4409 0.869142L50.8659 6.37528C50.308 7.2352 50.0885 8.27008 50.2486 9.28185L55.6441 43.2694L56.5156 48.3365L56.8374 50.5894L57.7551 56.0923L58.7685 62.1761C59.2687 64.6816 59.5195 66.5401 59.5195 67.7548C59.5195 68.6131 59.4123 69.4367 59.1977 70.2224C58.9105 71.5824 58.2486 72.6899 57.2121 73.5498C56.1756 74.4081 54.6191 75.0155 52.5461 75.372L52.4388 75.9084H75.8267L75.934 75.372C73.072 74.5863 71.0699 73.2263 69.9261 71.2952V71.2936Z" fill="url(#paint0_linear_96_6)"/>
<path d="M48.017 59.9135C47.4129 58.9941 46.9194 57.5433 46.5414 55.5693L41.0897 26.3287H33.3686L33.3125 26.5829C34.1807 26.7562 34.8244 26.9773 35.2419 27.2497C35.6595 27.522 35.8658 27.8818 35.8658 28.3242C35.8658 28.5272 35.8477 28.6972 35.8097 28.8342C35.7701 29.0735 35.5819 29.5356 35.2403 30.214L27.9037 41.4755C27.9037 41.4755 26.0617 46.4122 32.8239 46.6631C40.04 46.9288 40.9329 49.3122 41.0155 49.6093L41.0204 49.6258V49.639L41.0864 50.0467L41.2531 50.9478H41.2548L42.1098 55.5693C42.3722 56.761 42.5059 57.649 42.5059 58.2266C42.5059 58.6343 42.4481 59.0288 42.3359 59.4018C42.184 60.0488 41.8341 60.577 41.2845 60.988C40.7365 61.3956 39.9129 61.6861 38.8153 61.8561L38.7576 62.112H51.1348L51.1926 61.8561C49.679 61.4798 48.6178 60.8328 48.012 59.9135H48.017ZM28.861 42.0961L37.1747 29.3425L40.3437 45.9567C25.7861 47.9026 28.861 42.0961 28.861 42.0961Z" fill="white"/>
<path d="M23.3995 52.8604V52.8489C23.3962 52.7746 23.3913 52.702 23.3847 52.6293C23.383 52.6095 23.3814 52.5881 23.3797 52.5683C23.3797 52.5584 23.3781 52.5468 23.3764 52.5369C23.3715 52.4874 23.3665 52.4379 23.3599 52.3884C23.35 52.3108 23.3368 52.2332 23.3236 52.1573C23.312 52.0929 23.3005 52.0285 23.2873 51.9658C23.2807 51.9345 23.2724 51.9031 23.2642 51.8717C23.2642 51.8668 23.2625 51.8602 23.2609 51.8552C23.2493 51.8041 23.2361 51.7529 23.2213 51.7017C23.2213 51.6951 23.218 51.6885 23.2163 51.6819C23.1998 51.6242 23.1833 51.5664 23.1651 51.5103C23.1635 51.5037 23.1618 51.4954 23.1585 51.4888C23.1569 51.4855 23.1552 51.4806 23.1552 51.4773C23.1387 51.4294 23.1239 51.3832 23.1057 51.337C23.0975 51.3106 23.0876 51.2858 23.0777 51.2594C23.0529 51.2594 23.0298 51.2627 23.005 51.2644C22.9374 51.2693 22.8697 51.2743 22.802 51.2825C22.7542 51.2875 22.7063 51.2941 22.6568 51.3007C22.6518 51.3007 22.6452 51.3007 22.6403 51.3007C22.5941 51.3073 22.5478 51.3155 22.5 51.3238C22.429 51.3353 22.3597 51.3502 22.2887 51.365C22.2342 51.3766 22.1798 51.3898 22.127 51.403C22.0692 51.4178 22.0114 51.4327 21.9553 51.4492C21.952 51.4492 21.9503 51.4509 21.9487 51.4509C21.8926 51.4674 21.8365 51.4839 21.782 51.502C21.7242 51.5218 21.6681 51.54 21.612 51.5614C21.4981 51.6027 21.3875 51.6473 21.2769 51.6951C21.1664 51.743 21.0574 51.7942 20.9501 51.8519C20.8445 51.9064 20.7389 51.9658 20.6349 52.0285C20.5788 52.0632 20.5227 52.0979 20.4682 52.1342C20.422 52.1622 20.3758 52.1936 20.3312 52.225C20.2322 52.2943 20.1348 52.3652 20.039 52.4412C19.945 52.5154 19.8525 52.593 19.7618 52.6739C19.6726 52.7548 19.5852 52.8389 19.501 52.9248C19.4597 52.9677 19.4168 53.0106 19.3772 53.0552C19.3359 53.0997 19.2963 53.1443 19.2567 53.1905C19.0619 53.4166 18.8853 53.6609 18.7318 53.9151C18.6873 53.9894 18.6444 54.0653 18.6047 54.1429C18.5618 54.2237 18.5206 54.3063 18.4826 54.3888C18.5635 54.0917 18.6427 53.7698 18.7252 53.4744C18.58 53.618 18.443 53.7682 18.311 53.925C18.2466 54.0042 18.1822 54.0834 18.1195 54.166C18.0881 54.2072 18.0584 54.2468 18.0271 54.2898C17.9676 54.3723 17.9082 54.4565 17.8521 54.5423C17.5319 55.0292 17.2744 55.5574 17.0962 56.1086C17.0731 56.1747 17.0533 56.2423 17.0334 56.31C17.0252 56.3381 17.0186 56.3661 17.0103 56.3925C16.9905 56.4668 16.9707 56.5411 16.9542 56.6153C16.8387 57.1188 16.7892 57.6337 16.8172 58.147C16.7793 57.8714 16.6373 57.6024 16.4657 57.3828C16.4739 57.4224 16.4822 57.4621 16.4888 57.5017C16.502 57.5776 16.5086 57.6552 16.5135 57.7311C16.5598 58.5514 16.1504 59.3651 15.7741 60.1194C15.6866 60.296 15.5876 60.4677 15.4869 60.6393C15.4374 60.7251 15.3879 60.811 15.3384 60.8951C15.3136 60.9381 15.2905 60.9826 15.2657 61.0255C15.2195 61.1097 15.175 61.1939 15.1321 61.2797C15.1122 61.3226 15.0924 61.3655 15.0726 61.4101C15.0149 61.5388 14.9686 61.6659 14.9356 61.7963C14.8944 61.9597 14.8746 62.1231 14.8878 62.2898C14.8894 62.3146 14.8911 62.3393 14.896 62.3641C14.896 62.3707 14.896 62.379 14.896 62.3856C14.9092 62.4813 14.934 62.577 14.9703 62.6728L15.0066 62.6959L14.731 63.1184C14.6666 63.0887 14.5973 63.0656 14.5263 63.0474C14.2342 62.9731 13.9255 63.0936 13.7638 63.3495C13.0474 64.4768 11.0998 67.522 10.2383 68.6757C9.25785 69.9912 8.33191 71.0409 7.45713 71.8282C5.6333 73.4754 3.18228 74.6555 0.109011 75.3686L7.62939e-05 75.905H17.8108L17.9181 75.3686C16.2709 75.012 15.038 74.5482 14.216 73.9739C13.3924 73.4028 12.9831 72.5792 12.9831 71.5063C12.9831 70.9633 13.1151 70.2883 13.3792 69.4811C13.7671 68.2944 14.4405 66.8238 15.3994 65.066C15.5166 64.8514 15.5711 64.6204 15.5711 64.3959C15.5711 64.1879 15.5249 63.9849 15.4374 63.8017L15.8154 63.224L15.8566 63.2504C16.0118 63.2422 16.1554 63.2092 16.2891 63.158C16.3221 63.1448 16.3551 63.1316 16.3881 63.1167C16.4063 63.1085 16.4228 63.0986 16.4409 63.0903C16.4723 63.0738 16.5053 63.0557 16.5366 63.0375C16.5746 63.0144 16.6142 62.988 16.6505 62.9616C16.7132 62.917 16.7743 62.8692 16.8321 62.818C16.8998 62.7586 16.9658 62.6942 17.0301 62.6265C17.0615 62.5919 17.0945 62.5556 17.1275 62.5193C17.177 62.4615 17.2266 62.4037 17.2761 62.3426C17.3322 62.2733 17.3883 62.2007 17.4461 62.1264C17.5649 61.9713 17.6821 61.8112 17.8042 61.6577C17.8422 61.6098 17.8802 61.5636 17.9181 61.5174C18.0337 61.3787 18.1509 61.2368 18.2697 61.0982C18.3902 60.9595 18.514 60.8225 18.6427 60.6921C19.0718 60.2564 19.5538 59.8966 20.1414 59.781C19.9004 59.72 19.633 59.6952 19.3904 59.7447C19.3623 59.7497 19.3359 59.7563 19.3095 59.7645C19.3079 59.7645 19.3046 59.7662 19.3029 59.7662H19.2996C19.4003 59.7282 19.4993 59.687 19.5984 59.644C19.7453 59.578 19.8889 59.5054 20.0308 59.4262C21.2951 58.7148 22.2854 57.4934 22.807 56.1367C22.6271 56.2819 22.4356 56.4338 22.2507 56.5807C22.1897 56.6302 22.1286 56.6781 22.0692 56.7259C22.1187 56.6698 22.1666 56.6137 22.2128 56.5559C22.2243 56.5411 22.2359 56.5262 22.2474 56.5114C22.2838 56.4668 22.3168 56.4222 22.3498 56.376C22.363 56.3612 22.3729 56.3463 22.3844 56.3315C22.4257 56.2737 22.4653 56.2143 22.5066 56.1532C22.5082 56.1499 22.5115 56.1449 22.5132 56.1416C22.5544 56.0773 22.5957 56.0112 22.6337 55.9436C22.6634 55.8957 22.6914 55.8478 22.7162 55.7983C22.7393 55.7604 22.7591 55.7208 22.7789 55.6828C22.807 55.6283 22.8334 55.5739 22.8598 55.5194L22.8647 55.5095C22.8647 55.5095 22.8697 55.4996 22.8713 55.4946C22.8961 55.4418 22.9209 55.3874 22.944 55.3312C22.9539 55.3098 22.9621 55.29 22.9704 55.2685C22.9984 55.2025 23.0248 55.1365 23.0479 55.0705C23.0546 55.0523 23.0612 55.0358 23.0678 55.0176C23.0744 55.0011 23.0793 54.9863 23.0843 54.9698C23.1041 54.9137 23.1222 54.8575 23.1404 54.8014C23.1618 54.737 23.18 54.671 23.1981 54.605C23.208 54.5687 23.218 54.534 23.2262 54.4994C23.2328 54.473 23.2394 54.4449 23.246 54.4185C23.2543 54.3871 23.2609 54.3558 23.2691 54.3228C23.2873 54.2402 23.3038 54.1594 23.317 54.0768L23.3219 54.0471C23.3434 53.925 23.3599 53.8012 23.3731 53.6758C23.3764 53.646 23.3797 53.6147 23.383 53.5833C23.3863 53.552 23.388 53.5206 23.3896 53.4893C23.3929 53.4397 23.3962 53.3902 23.3995 53.3391V53.3341C23.4028 53.2631 23.4045 53.1905 23.4045 53.1179V53.0717C23.4045 53.0007 23.4028 52.9297 23.3995 52.8588V52.8604ZM20.6316 52.4725C20.0357 52.9891 19.501 53.5734 19.0388 54.2155C19.4317 53.5272 19.9846 52.9281 20.6316 52.4725ZM17.73 55.4567C17.5319 55.9617 17.3421 56.518 17.1869 57.0379C17.1836 57.0445 17.182 57.0511 17.1803 57.0577C17.2612 56.4965 17.4494 55.9485 17.73 55.4567ZM16.3666 59.7959C16.3666 59.7959 16.3633 59.8058 16.36 59.8107C16.2544 60.0979 16.0794 60.3538 15.8748 60.5766C16.0167 60.2993 16.1867 60.0501 16.3666 59.7959ZM18.8061 58.487C19.4366 57.4769 20.3956 55.9419 21.0129 54.9417C20.3526 56.1664 19.6132 57.3515 18.8061 58.487ZM17.834 59.6127C17.4032 60.2993 16.9542 60.9793 16.4904 61.6494C16.3188 61.897 16.1471 62.1413 15.9738 62.3823C15.9392 62.4334 15.9012 62.4846 15.8649 62.5358C15.7477 62.6992 15.6289 62.8626 15.5084 63.0243L15.3301 62.9088C15.4308 62.7338 15.5331 62.5589 15.6355 62.3856C16.223 61.3886 16.8618 60.3571 17.5138 59.4031C18.1492 58.4771 19.8311 55.9865 20.4797 55.0259C21.1432 54.057 21.8018 53.0832 22.4686 52.116L22.5016 52.1375C21.0822 54.4466 19.2716 57.297 17.834 59.6127Z" fill="#F051A3"/>
<path d="M23.3995 52.8604V52.8489C23.3962 52.7746 23.3913 52.702 23.3847 52.6293C23.383 52.6095 23.3814 52.5881 23.3797 52.5683C23.3797 52.5584 23.3781 52.5468 23.3764 52.5369C23.3715 52.4874 23.3665 52.4379 23.3599 52.3884C23.35 52.3108 23.3368 52.2332 23.3236 52.1573C23.312 52.0929 23.3005 52.0285 23.2873 51.9658C23.2807 51.9345 23.2724 51.9031 23.2642 51.8717C23.2642 51.8668 23.2625 51.8602 23.2609 51.8552C23.2493 51.8041 23.2361 51.7529 23.2213 51.7017C23.2213 51.6951 23.218 51.6885 23.2163 51.6819C23.1998 51.6242 23.1833 51.5664 23.1651 51.5103C23.1635 51.5037 23.1618 51.4954 23.1585 51.4888C23.1569 51.4855 23.1552 51.4806 23.1552 51.4773C23.1387 51.4294 23.1239 51.3832 23.1057 51.337C23.0975 51.3106 23.0876 51.2858 23.0777 51.2594C23.0529 51.2594 23.0298 51.2627 23.005 51.2644C22.9374 51.2693 22.8697 51.2743 22.802 51.2825C22.7542 51.2875 22.7063 51.2941 22.6568 51.3007C22.6518 51.3007 22.6452 51.3007 22.6403 51.3007C22.5941 51.3073 22.5478 51.3155 22.5 51.3238C22.429 51.3353 22.3597 51.3502 22.2887 51.365C22.2342 51.3766 22.1798 51.3898 22.127 51.403C22.0692 51.4178 22.0114 51.4327 21.9553 51.4492C21.952 51.4492 21.9503 51.4509 21.9487 51.4509C21.8926 51.4674 21.8365 51.4839 21.782 51.502C21.7242 51.5218 21.6681 51.54 21.612 51.5614C21.4981 51.6027 21.3875 51.6473 21.2769 51.6951C21.1664 51.743 21.0574 51.7942 20.9501 51.8519C20.8445 51.9064 20.7389 51.9658 20.6349 52.0285C20.5788 52.0632 20.5227 52.0979 20.4682 52.1342C20.422 52.1622 20.3758 52.1936 20.3312 52.225C20.2322 52.2943 20.1348 52.3652 20.039 52.4412C19.945 52.5154 19.8525 52.593 19.7618 52.6739C19.6726 52.7548 19.5852 52.8389 19.501 52.9248C19.4597 52.9677 19.4168 53.0106 19.3772 53.0552C19.3359 53.0997 19.2963 53.1443 19.2567 53.1905C19.0619 53.4166 18.8853 53.6609 18.7318 53.9151C18.6873 53.9894 18.6444 54.0653 18.6047 54.1429C18.5618 54.2237 18.5206 54.3063 18.4826 54.3888C18.5635 54.0917 18.6427 53.7698 18.7252 53.4744C18.58 53.618 18.443 53.7682 18.311 53.925C18.2466 54.0042 18.1822 54.0834 18.1195 54.166C18.0881 54.2072 18.0584 54.2468 18.0271 54.2898C17.9676 54.3723 17.9082 54.4565 17.8521 54.5423C17.5319 55.0292 17.2744 55.5574 17.0962 56.1086C17.0731 56.1747 17.0533 56.2423 17.0334 56.31C17.0252 56.3381 17.0186 56.3661 17.0103 56.3925C16.9905 56.4668 16.9707 56.5411 16.9542 56.6153C16.8387 57.1188 16.7892 57.6337 16.8172 58.147C16.7793 57.8714 16.6373 57.6024 16.4657 57.3828C16.4739 57.4224 16.4822 57.4621 16.4888 57.5017C16.502 57.5776 16.5086 57.6552 16.5135 57.7311C16.5598 58.5514 16.1504 59.3651 15.7741 60.1194C15.6866 60.296 15.5876 60.4677 15.4869 60.6393C15.4374 60.7251 15.3879 60.811 15.3384 60.8951C15.3136 60.9381 15.2905 60.9826 15.2657 61.0255C15.2195 61.1097 15.175 61.1939 15.1321 61.2797C15.1122 61.3226 15.0924 61.3655 15.0726 61.4101C15.0149 61.5388 14.9686 61.6659 14.9356 61.7963C14.8944 61.9597 14.8746 62.1231 14.8878 62.2898C14.8894 62.3146 14.8911 62.3393 14.896 62.3641C14.896 62.3707 14.896 62.379 14.896 62.3856C14.9092 62.4813 14.934 62.577 14.9703 62.6728L15.0066 62.6959L14.731 63.1184C14.6666 63.0887 14.5973 63.0656 14.5263 63.0474C14.2342 62.9731 13.9255 63.0936 13.7638 63.3495C13.0474 64.4768 11.0998 67.522 10.2383 68.6757C9.25785 69.9912 8.33191 71.0409 7.45713 71.8282C5.6333 73.4754 3.18228 74.6555 0.109011 75.3686L7.62939e-05 75.905H17.8108L17.9181 75.3686C16.2709 75.012 15.038 74.5482 14.216 73.9739C13.3924 73.4028 12.9831 72.5792 12.9831 71.5063C12.9831 70.9633 13.1151 70.2883 13.3792 69.4811C13.7671 68.2944 14.4405 66.8238 15.3994 65.066C15.5166 64.8514 15.5711 64.6204 15.5711 64.3959C15.5711 64.1879 15.5249 63.9849 15.4374 63.8017L15.8154 63.224L15.8566 63.2504C16.0118 63.2422 16.1554 63.2092 16.2891 63.158C16.3221 63.1448 16.3551 63.1316 16.3881 63.1167C16.4063 63.1085 16.4228 63.0986 16.4409 63.0903C16.4723 63.0738 16.5053 63.0557 16.5366 63.0375C16.5746 63.0144 16.6142 62.988 16.6505 62.9616C16.7132 62.917 16.7743 62.8692 16.8321 62.818C16.8998 62.7586 16.9658 62.6942 17.0301 62.6265C17.0615 62.5919 17.0945 62.5556 17.1275 62.5193C17.177 62.4615 17.2266 62.4037 17.2761 62.3426C17.3322 62.2733 17.3883 62.2007 17.4461 62.1264C17.5649 61.9713 17.6821 61.8112 17.8042 61.6577C17.8422 61.6098 17.8802 61.5636 17.9181 61.5174C18.0337 61.3787 18.1509 61.2368 18.2697 61.0982C18.3902 60.9595 18.514 60.8225 18.6427 60.6921C19.0718 60.2564 19.5538 59.8966 20.1414 59.781C19.9004 59.72 19.633 59.6952 19.3904 59.7447C19.3623 59.7497 19.3359 59.7563 19.3095 59.7645C19.3079 59.7645 19.3046 59.7662 19.3029 59.7662H19.2996C19.4003 59.7282 19.4993 59.687 19.5984 59.644C19.7453 59.578 19.8889 59.5054 20.0308 59.4262C21.2951 58.7148 22.2854 57.4934 22.807 56.1367C22.6271 56.2819 22.4356 56.4338 22.2507 56.5807C22.1897 56.6302 22.1286 56.6781 22.0692 56.7259C22.1187 56.6698 22.1666 56.6137 22.2128 56.5559C22.2243 56.5411 22.2359 56.5262 22.2474 56.5114C22.2838 56.4668 22.3168 56.4222 22.3498 56.376C22.363 56.3612 22.3729 56.3463 22.3844 56.3315C22.4257 56.2737 22.4653 56.2143 22.5066 56.1532C22.5082 56.1499 22.5115 56.1449 22.5132 56.1416C22.5544 56.0773 22.5957 56.0112 22.6337 55.9436C22.6634 55.8957 22.6914 55.8478 22.7162 55.7983C22.7393 55.7604 22.7591 55.7208 22.7789 55.6828C22.807 55.6283 22.8334 55.5739 22.8598 55.5194L22.8647 55.5095C22.8647 55.5095 22.8697 55.4996 22.8713 55.4946C22.8961 55.4418 22.9209 55.3874 22.944 55.3312C22.9539 55.3098 22.9621 55.29 22.9704 55.2685C22.9984 55.2025 23.0248 55.1365 23.0479 55.0705C23.0546 55.0523 23.0612 55.0358 23.0678 55.0176C23.0744 55.0011 23.0793 54.9863 23.0843 54.9698C23.1041 54.9137 23.1222 54.8575 23.1404 54.8014C23.1618 54.737 23.18 54.671 23.1981 54.605C23.208 54.5687 23.218 54.534 23.2262 54.4994C23.2328 54.473 23.2394 54.4449 23.246 54.4185C23.2543 54.3871 23.2609 54.3558 23.2691 54.3228C23.2873 54.2402 23.3038 54.1594 23.317 54.0768L23.3219 54.0471C23.3434 53.925 23.3599 53.8012 23.3731 53.6758C23.3764 53.646 23.3797 53.6147 23.383 53.5833C23.3863 53.552 23.388 53.5206 23.3896 53.4893C23.3929 53.4397 23.3962 53.3902 23.3995 53.3391V53.3341C23.4028 53.2631 23.4045 53.1905 23.4045 53.1179V53.0717C23.4045 53.0007 23.4028 52.9297 23.3995 52.8588V52.8604ZM20.6316 52.4725C20.0357 52.9891 19.501 53.5734 19.0388 54.2155C19.4317 53.5272 19.9846 52.9281 20.6316 52.4725ZM17.73 55.4567C17.5319 55.9617 17.3421 56.518 17.1869 57.0379C17.1836 57.0445 17.182 57.0511 17.1803 57.0577C17.2612 56.4965 17.4494 55.9485 17.73 55.4567ZM16.3666 59.7959C16.3666 59.7959 16.3633 59.8058 16.36 59.8107C16.2544 60.0979 16.0794 60.3538 15.8748 60.5766C16.0167 60.2993 16.1867 60.0501 16.3666 59.7959ZM18.8061 58.487C19.4366 57.4769 20.3956 55.9419 21.0129 54.9417C20.3526 56.1664 19.6132 57.3515 18.8061 58.487ZM17.834 59.6127C17.4032 60.2993 16.9542 60.9793 16.4904 61.6494C16.3188 61.897 16.1471 62.1413 15.9738 62.3823C15.9392 62.4334 15.9012 62.4846 15.8649 62.5358C15.7477 62.6992 15.6289 62.8626 15.5084 63.0243L15.3301 62.9088C15.4308 62.7338 15.5331 62.5589 15.6355 62.3856C16.223 61.3886 16.8618 60.3571 17.5138 59.4031C18.1492 58.4771 19.8311 55.9865 20.4797 55.0259C21.1432 54.057 21.8018 53.0832 22.4686 52.116L22.5016 52.1375C21.0822 54.4466 19.2716 57.297 17.834 59.6127Z" fill="url(#paint1_linear_96_6)"/>
<path d="M222 44.382C220.536 42.3667 217.819 41.2443 215.355 41.6091C215.735 41.4886 216.139 41.3467 216.517 41.2278C214.34 40.7591 211.9 41.142 210.105 42.4624C210.377 42.2264 210.568 41.8831 210.684 41.5398C209.817 42.431 208.466 42.5812 207.229 42.7248C205.995 42.8668 204.63 42.7331 203.894 43.7333V43.7003H202.598V43.6623L200.396 43.1705C200.396 43.1705 200.074 43.5121 199.597 43.7993H67.4056V45.1032H199.71C200.124 45.3739 200.396 45.6628 200.396 45.6628L202.598 45.1726V45.1346H203.894V45.1032C204.63 46.1051 205.995 45.8955 207.229 46.0374C208.466 46.1794 209.817 46.3312 210.684 47.2225C210.568 46.8808 210.377 46.5359 210.105 46.2999C211.9 47.6203 214.34 48.0016 216.517 47.5361C216.139 47.414 215.735 47.2737 215.355 47.1532C217.819 47.5163 220.536 46.3956 222 44.382ZM206.805 45.605C207.2 45.5373 207.609 45.5307 208 45.6215C207.599 45.6397 207.205 45.6446 206.805 45.605ZM211.546 46.6762C212.226 46.8775 212.973 47.0657 213.668 47.2126C212.937 47.168 212.211 46.9848 211.546 46.6762ZM209.24 44.6576C207.743 44.6906 206.173 44.6526 204.678 44.5866C204.433 44.5751 204.189 44.5619 203.943 44.5487C203.927 44.547 203.91 44.547 203.894 44.5454V44.2763C203.91 44.2747 203.927 44.2747 203.943 44.273C205.706 44.1674 207.482 44.1327 209.24 44.1624C212.762 44.24 217.133 44.2912 220.64 44.3853V44.4348C219.12 44.4744 217.6 44.5008 216.08 44.5338C214.579 44.5586 210.691 44.6213 209.24 44.6576ZM218.956 46.1744C218.002 46.5573 216.961 46.7307 215.936 46.6712C216.959 46.625 217.971 46.455 218.956 46.1744Z" fill="url(#paint2_linear_96_6)"/>
<path d="M203.943 44.2731V44.5488C203.927 44.5471 203.91 44.5471 203.894 44.5455V44.2764C203.91 44.2748 203.927 44.2748 203.943 44.2731Z" fill="white"/>
<path d="M118.806 40.4638C119.249 40.3615 119.603 40.1915 119.866 39.9538C120.128 39.7161 120.425 39.3151 120.755 38.7473L125.364 30.8908C125.456 30.6845 125.507 30.5459 125.519 30.4732C125.529 30.432 125.534 30.3808 125.534 30.3181C125.534 30.1844 125.478 30.0755 125.364 29.9929C125.25 29.9104 125.075 29.8444 124.837 29.7916L124.852 29.714H126.955L128.439 38.5591C128.541 39.1566 128.676 39.5957 128.841 39.8729C129.006 40.1519 129.295 40.3466 129.708 40.4605L129.693 40.5381H126.321L126.336 40.4605C126.635 40.4094 126.859 40.3219 127.009 40.1981C127.158 40.0743 127.254 39.9142 127.295 39.7194C127.326 39.6056 127.341 39.4867 127.341 39.3629C127.341 39.188 127.305 38.9206 127.232 38.5591L126.953 36.8888H122.221L121.138 38.744C120.818 39.2903 120.66 39.6765 120.66 39.9043C120.66 40.0595 120.719 40.1783 120.838 40.2608C120.957 40.3433 121.133 40.411 121.371 40.4622L121.356 40.5398H118.79L118.805 40.4622L118.806 40.4638ZM122.424 36.567H126.909L125.889 30.6284L122.394 36.5818L122.426 36.567H122.424Z" fill="white"/>
<path d="M133.59 30.7209C133.631 30.4733 133.653 30.3182 133.653 30.2571C133.653 30.0607 133.588 29.9221 133.46 29.8395C133.331 29.757 133.111 29.7157 132.803 29.7157L132.834 29.5606L135.014 28.9417L134.041 33.5499C134.907 32.9524 135.782 32.6537 136.67 32.6537C137.558 32.6537 138.277 32.9211 138.743 33.4575C139.207 33.9939 139.439 34.6739 139.439 35.4992C139.439 35.8606 139.403 36.2006 139.33 36.5192C139.185 37.2306 138.903 37.9056 138.48 38.5444C138.058 39.1831 137.53 39.7014 136.896 40.0992C136.262 40.4969 135.564 40.695 134.8 40.695C133.923 40.695 133.197 40.4012 132.619 39.8136L131.568 40.695H131.476L133.595 30.7209H133.59ZM136.945 39.3267C137.543 38.683 137.941 37.8957 138.135 36.9681C138.218 36.5555 138.259 36.1742 138.259 35.8243C138.259 35.0403 138.091 34.3867 137.757 33.8602C137.422 33.3337 136.95 33.0713 136.343 33.0713C135.539 33.0713 134.735 33.4063 133.93 34.0764L132.816 39.3185C133.042 39.6486 133.329 39.8929 133.674 40.053C134.019 40.2131 134.362 40.2923 134.702 40.2923C135.599 40.2923 136.346 39.9704 136.945 39.3251V39.3267Z" fill="white"/>
<path d="M141.377 39.9143C140.867 39.3944 140.611 38.6698 140.611 37.7422C140.611 37.361 140.658 36.9632 140.75 36.5522C140.925 35.7385 141.24 35.037 141.694 34.4494C142.148 33.8618 142.689 33.4162 143.318 33.1125C143.947 32.8088 144.607 32.657 145.297 32.657C146.164 32.657 146.839 32.9194 147.322 33.4459L147.895 30.7242C147.936 30.4766 147.958 30.3215 147.958 30.2604C147.958 30.064 147.893 29.9254 147.765 29.8428C147.636 29.7603 147.416 29.719 147.108 29.719L147.139 29.5639L149.319 28.9449L147.278 38.5642C147.164 39.1105 147.108 39.472 147.108 39.6469C147.108 39.8747 147.164 40.0496 147.278 40.1734C147.392 40.2972 147.593 40.3946 147.88 40.4672L147.865 40.5448H145.809L146.088 39.1996C145.768 39.6733 145.376 40.043 144.913 40.3055C144.449 40.5679 143.927 40.7 143.351 40.7C142.547 40.7 141.89 40.4392 141.379 39.9193L141.377 39.9143ZM144.779 40.0001C145.134 39.8037 145.457 39.5231 145.746 39.1567C146.035 38.7903 146.246 38.3661 146.38 37.8809L147.184 34.0764C147.019 33.705 146.774 33.4377 146.449 33.2726C146.124 33.1076 145.746 33.025 145.312 33.025C144.455 33.025 143.706 33.3502 143.062 33.9988C142.419 34.6491 141.988 35.4728 141.772 36.473C141.679 36.9054 141.633 37.318 141.633 37.7109C141.633 38.4949 141.813 39.1204 142.174 39.5892C142.536 40.0579 143.056 40.2923 143.736 40.2923C144.076 40.2923 144.424 40.1949 144.78 39.9985L144.779 40.0001Z" fill="white"/>
<path d="M150.501 40.332C150.239 40.0893 150.107 39.7262 150.107 39.241C150.107 38.8795 150.174 38.4009 150.308 37.8034L151.019 34.4314C151.061 34.1838 151.082 34.0286 151.082 33.9676C151.082 33.7712 151.018 33.6325 150.889 33.55C150.76 33.4675 150.541 33.4262 150.232 33.4262L150.264 33.271L152.444 32.6521L151.361 37.7555C151.247 38.3018 151.191 38.7458 151.191 39.0858C151.191 39.4985 151.275 39.8022 151.447 39.9986C151.617 40.195 151.893 40.2924 152.274 40.2924C152.687 40.2924 153.197 40.1504 153.806 39.8665C154.413 39.5826 154.925 39.2245 155.337 38.792L156.265 34.4314C156.306 34.1838 156.328 34.0286 156.328 33.9676C156.328 33.7712 156.263 33.6325 156.134 33.55C156.006 33.4675 155.786 33.4262 155.478 33.4262L155.509 33.271L157.689 32.6521L156.437 38.5593C156.323 39.1056 156.267 39.4671 156.267 39.6421C156.267 39.8698 156.323 40.0448 156.437 40.1686C156.55 40.2924 156.752 40.3897 157.039 40.4624L157.024 40.5399H154.968L155.23 39.3334C154.703 39.746 154.137 40.0761 153.528 40.3237C152.919 40.5713 152.363 40.6951 151.858 40.6951C151.219 40.6951 150.767 40.5746 150.505 40.332H150.501Z" fill="white"/>
<path d="M158.272 40.4639C158.612 40.3913 158.868 40.284 159.038 40.1388C159.208 39.9952 159.331 39.8136 159.409 39.5974C159.487 39.3812 159.576 39.0362 159.68 38.5609L161.35 30.7209C161.391 30.4733 161.413 30.3182 161.413 30.2571C161.413 30.0607 161.348 29.9221 161.22 29.8395C161.091 29.757 160.871 29.7157 160.563 29.7157L160.594 29.5606L162.774 28.9417L160.733 38.5609C160.619 39.1072 160.563 39.4687 160.563 39.6436C160.563 39.8714 160.619 40.0464 160.733 40.1701C160.847 40.2939 161.046 40.3913 161.335 40.4639L161.32 40.5415H158.259L158.273 40.4639H158.272Z" fill="white"/>
<path d="M166.59 40.4638C167.033 40.3615 167.388 40.1915 167.65 39.9538C167.912 39.7161 168.209 39.3151 168.54 38.7473L173.148 30.8908C173.24 30.6845 173.291 30.5459 173.303 30.4732C173.313 30.432 173.318 30.3808 173.318 30.3181C173.318 30.1844 173.262 30.0755 173.148 29.9929C173.034 29.9104 172.859 29.8444 172.621 29.7916L172.636 29.714H174.739L176.223 38.5591C176.325 39.1566 176.46 39.5957 176.625 39.8729C176.791 40.1519 177.079 40.3466 177.492 40.4605L177.477 40.5381H174.105L174.12 40.4605C174.419 40.4094 174.643 40.3219 174.793 40.1981C174.942 40.0743 175.038 39.9142 175.079 39.7194C175.11 39.6056 175.125 39.4867 175.125 39.3629C175.125 39.188 175.089 38.9206 175.016 38.5591L174.737 36.8888H170.005L168.923 38.744C168.602 39.2903 168.444 39.6765 168.444 39.9043C168.444 40.0595 168.503 40.1783 168.622 40.2608C168.741 40.3433 168.918 40.411 169.155 40.4622L169.14 40.5398H166.574L166.589 40.4622L166.59 40.4638ZM170.21 36.567H174.694L173.674 30.6284L170.18 36.5818L170.212 36.567H170.21Z" fill="white"/>
<path d="M184.538 40.5726C184.512 40.5511 184.452 40.5412 184.36 40.5412H178.638L185.256 33.1485H182.782C182.09 33.1485 181.552 33.2872 181.166 33.5661C180.78 33.8451 180.405 34.3039 180.045 34.9427H179.907L180.943 32.6534H181.113C181.145 32.7145 181.173 32.7557 181.197 32.7772C181.224 32.7986 181.283 32.8085 181.376 32.8085H186.834L180.23 40.2012H182.967C183.657 40.2012 184.193 40.0642 184.574 39.7919C184.956 39.5195 185.327 39.0574 185.689 38.4087H185.827L184.791 40.698H184.621C184.589 40.6353 184.561 40.5957 184.535 40.5742L184.538 40.5726Z" fill="white"/>
<path d="M186.633 40.4635C186.973 40.3908 187.228 40.2836 187.399 40.1383C187.569 39.9947 187.692 39.8132 187.77 39.5969C187.847 39.3807 187.937 39.0358 188.041 38.5604L188.922 34.4308C188.963 34.1832 188.985 34.0281 188.985 33.967C188.985 33.7706 188.92 33.632 188.792 33.5494C188.663 33.4669 188.443 33.4256 188.135 33.4256L188.166 33.2705L190.346 32.6515L189.094 38.5588C188.98 39.1051 188.924 39.4665 188.924 39.6415C188.924 39.8693 188.98 40.0442 189.094 40.168C189.207 40.2918 189.407 40.3892 189.696 40.4618L189.681 40.5394H186.619L186.634 40.4618L186.633 40.4635ZM189.556 31.1842C189.432 31.0604 189.371 30.9053 189.371 30.7204C189.371 30.463 189.473 30.2302 189.68 30.0239C189.886 29.8176 190.122 29.7153 190.391 29.7153C190.587 29.7153 190.749 29.778 190.878 29.9001C191.007 30.0239 191.071 30.1791 191.071 30.3639C191.071 30.6313 190.962 30.8673 190.746 31.067C190.53 31.2684 190.292 31.3691 190.034 31.3691C189.838 31.3691 189.68 31.308 189.556 31.1842Z" fill="white"/>
<path d="M196.972 40.5726C196.945 40.5511 196.886 40.5412 196.793 40.5412H191.071L197.69 33.1485H195.215C194.524 33.1485 193.986 33.2872 193.6 33.5661C193.213 33.8451 192.839 34.3039 192.479 34.9427H192.34L193.377 32.6534H193.547C193.578 32.7145 193.606 32.7557 193.631 32.7772C193.657 32.7986 193.717 32.8085 193.809 32.8085H199.267L192.664 40.2012H195.4C196.09 40.2012 196.627 40.0642 197.008 39.7919C197.389 39.5195 197.76 39.0574 198.122 38.4087H198.261L197.224 40.698H197.054C197.023 40.6353 196.995 40.5957 196.968 40.5742L196.972 40.5726Z" fill="white"/>
<path d="M163.453 52.2084C163.4 52.4791 163.024 52.7861 162.735 52.6986C162.69 52.6986 162.271 52.5055 161.964 52.5847C161.869 52.6276 161.771 52.6276 161.649 52.6722C161.439 52.7415 161.114 52.9445 160.913 53.0485C160.388 53.3192 159.941 53.6526 159.774 53.854C159.642 54.0289 159.371 54.2749 159.292 54.3788C159.125 54.5885 159.257 54.5621 159.3 54.572C159.546 54.6149 159.791 54.5026 160.203 54.3706C160.754 54.161 161.255 53.8622 161.491 53.7219C162.227 53.2928 162.253 53.3374 163.146 52.6541C163.488 52.3834 163.557 52.3206 163.707 52.1803C163.917 51.979 164.207 51.6192 164.61 51.1026C165.039 50.4374 165.513 49.7887 165.959 49.1401C166.282 48.6664 166.686 47.9847 167.15 47.6167C167.343 47.5473 167.518 47.5985 167.614 47.7124C167.824 47.818 167.772 48.2472 167.579 48.5096C167.571 48.5525 167.474 48.6499 167.457 48.6581L167.325 48.7539C166.941 49.0427 166.843 49.2012 166.563 49.4454L166.51 49.5148C165.721 50.5661 164.934 51.4855 164.329 52.659C164.128 53.0799 163.498 53.8672 163.918 54.463C164.067 54.6644 164.514 54.6561 164.734 54.6116C165.128 54.5587 165.978 54.402 166.495 54.1379C166.749 54.0157 166.818 54.0157 167.16 53.7781C167.327 53.7087 167.361 53.7781 167.266 53.9002C167.107 54.1197 166.802 54.2683 166.399 54.5406C165.708 54.9879 164.49 55.5309 163.973 55.3906C163.483 55.2503 163.22 54.7519 163.281 54.0685C163.3 53.788 163.377 53.5684 163.465 53.2978C163.534 53.0518 163.613 52.8686 163.711 52.6937C163.588 52.8158 163.448 52.9396 163.29 53.07C162.72 53.5255 162.852 53.3588 161.854 53.9893C161.52 54.1643 161.056 54.5406 160.68 54.7073C160.18 54.9087 159.393 55.285 158.85 55.2322C158.394 55.1876 158.123 54.8113 158.333 54.4003C158.482 54.1197 158.937 53.5849 159.358 53.3143C159.734 53.0683 160.086 52.8587 160.418 52.6838C160.645 52.5699 161.469 52.2546 162.081 52.0615C162.502 51.913 162.905 51.7908 163.167 51.8684C163.334 51.9295 163.483 52.078 163.456 52.2018L163.453 52.2084Z" fill="white"/>
<path d="M168.155 53.9861C168.086 53.9778 168.041 53.9514 168.023 53.9068L167.901 54.0125C167.848 54.0554 167.753 54.1874 167.7 54.2832C167.647 54.3706 167.657 54.4499 167.657 54.4763C167.657 54.5555 167.753 54.5984 167.84 54.643C167.954 54.6958 168.174 54.8014 168.987 54.7222C169.26 54.704 169.575 54.7222 170.266 54.5637C170.95 54.4152 171.318 54.2568 171.853 54.09C172.098 54.0108 172.316 53.9498 172.58 53.8623C172.965 53.7484 173.168 53.6263 173.203 53.5998C173.29 53.5305 173.51 53.5206 173.449 53.6873C173.404 53.793 173.151 53.8804 172.914 53.9844C172.537 54.1594 172.108 54.3442 171.942 54.3954C171.494 54.5621 171.075 54.6925 170.575 54.8509C170.067 54.9731 169.725 55.1051 169.279 55.1843C169.131 55.2108 168.85 55.2718 168.667 55.29C168.028 55.351 167.739 55.351 167.493 55.3345C167.335 55.3263 167.266 55.2999 167.152 55.2553C167.03 55.2124 167.02 55.1678 166.932 55.115C166.774 55.0193 166.696 54.8427 166.696 54.6413C166.696 54.5274 166.688 54.3525 166.784 54.194C166.845 54.1148 166.959 53.9217 167.152 53.7385C167.319 53.58 167.555 53.3886 167.774 53.2483C168.107 53.0387 168.211 52.9677 168.386 52.872C168.545 52.7845 168.763 52.7135 169.184 52.5122C169.936 52.1523 170.288 52.0649 170.725 51.9873L171.067 51.918C171.268 51.8916 172.023 51.8751 172.057 52.225C172.065 52.3471 172.023 52.4445 171.838 52.6013C171.689 52.7234 171.583 52.8208 171.347 52.9429C170.988 53.1361 170.314 53.3985 169.674 53.6345C169.578 53.6692 169.446 53.7137 169.279 53.7566C169.165 53.8095 169.043 53.8623 168.938 53.8969C168.745 53.9762 168.36 54.1165 168.159 53.9844L168.155 53.9861ZM168.507 53.4959H168.542C168.611 53.4959 168.743 53.4876 168.883 53.4777C168.989 53.4695 168.997 53.4777 169.076 53.4695L169.269 53.4348L169.471 53.3737C169.593 53.3391 169.699 53.3044 169.778 53.2681C170.162 53.1014 170.776 52.8125 170.978 52.6557C171.092 52.5683 170.996 52.5155 170.986 52.5072C170.872 52.4643 170.793 52.4643 170.785 52.4643C170.626 52.4824 170.469 52.4824 170.083 52.6475C170.014 52.6822 169.874 52.7614 169.786 52.8059L169.453 52.9644C169.182 53.0964 168.918 53.245 168.7 53.3853C168.639 53.4199 168.568 53.4546 168.507 53.4992V53.4959Z" fill="white"/>
<path d="M174.094 53.2503C174.322 53.1809 174.541 53.1182 174.69 53.0835C175.286 52.935 175.723 52.9003 176.213 52.8904C176.221 52.8294 176.24 52.7683 176.256 52.7237C176.325 52.557 176.301 52.496 176.405 52.3557C176.738 51.9529 177.403 51.4627 177.928 51.6459C178.024 51.6806 178.156 51.7862 178.217 51.8556C178.243 51.9777 178.19 52.1791 178.121 52.3029C177.999 52.5125 177.534 52.6528 177.359 52.5125L177.271 52.4514C177.202 52.4085 176.911 52.3557 176.903 52.4861C176.895 52.6181 176.877 52.7485 176.895 52.8888C176.948 52.8888 177 52.8805 177.053 52.8805C178.131 52.8624 178.271 52.8723 179.286 52.9862C179.427 52.9944 179.646 53.0472 179.821 53.1182C179.935 53.1611 180.014 53.1974 180.014 53.2403C180.067 53.3278 179.945 53.407 179.874 53.4599C179.768 53.5292 179.638 53.5556 179.514 53.478C179.374 53.3988 179.356 53.3295 179.154 53.3113C179.049 53.2767 178.795 53.1974 178.489 53.171C178.042 53.1364 177.509 53.1364 177.324 53.1364H176.929C176.982 53.3559 177.062 53.5655 177.139 53.7487C177.245 53.9765 177.279 54.2224 177.113 54.4848C177.017 54.6251 176.858 54.7737 176.702 54.8694C176.395 55.0972 175.886 55.2903 175.203 55.3596C174.634 55.4289 174.056 55.4025 173.749 55.3514C173.477 55.2985 173.232 55.1929 173.021 55.0625C172.793 54.914 172.636 54.7473 172.627 54.5113C172.617 54.2752 172.793 53.9946 173.127 53.7322C173.328 53.5919 173.381 53.5473 173.661 53.3988C173.775 53.346 173.749 53.3196 173.897 53.2932L174.091 53.2503H174.094ZM176.205 53.1463C175.837 53.1644 175.469 53.1991 175.111 53.2948C174.804 53.374 174.454 53.4004 174.165 53.4962C174.059 53.5308 173.876 53.6447 173.789 53.7058C173.657 53.7933 173.614 53.9336 173.543 54.1003C173.455 54.3099 173.586 54.4683 173.665 54.5822C173.787 54.7572 173.919 54.7572 174.033 54.8017C174.34 54.9156 174.698 55.0823 175.076 55.0378C175.357 54.9932 175.436 54.9503 175.654 54.9156C175.82 54.9074 176.127 54.7935 176.231 54.6433C176.319 54.5294 176.512 54.4238 176.39 54.1085C176.294 53.8626 176.215 53.4698 176.207 53.1446L176.205 53.1463Z" fill="white"/>
<path d="M179.42 53.5387C179.613 53.1442 179.78 52.7597 179.971 52.5055C180.191 52.1638 180.523 52.111 180.777 52.0764C180.917 52.0582 181.1 52.1985 181.127 52.3305C181.188 52.4708 181.074 52.593 180.978 52.6904C180.82 52.8571 180.671 52.9264 180.576 52.9974C180.488 53.0931 180.382 53.1558 180.313 53.2169C180.155 53.3654 180.067 53.4793 179.963 53.6724C179.815 53.953 179.788 54.1098 179.849 54.3557C179.937 54.7403 180.41 54.6891 180.699 54.6363C181.26 54.5142 181.82 54.435 182.355 54.2517C182.723 54.1296 183.091 53.9547 183.414 53.7698C183.589 53.7351 183.764 53.788 183.642 53.9018C182.784 54.463 181.592 55.1282 180.488 55.2767C179.98 55.346 179.349 55.2767 179.174 54.742C179.052 54.3656 179.209 53.9893 179.42 53.542V53.5387ZM182.512 48.9932C182.617 49.0543 182.713 49.1153 182.556 49.353C182.276 49.7293 182.188 49.8168 181.855 49.9918C181.836 50 181.505 50.1238 181.33 49.9571C181.269 49.896 181.303 49.7739 181.269 49.7029C181.173 49.4141 181.629 49.2474 181.97 49.1071C182.102 49.046 182.066 49.0807 182.145 49.046C182.338 48.9767 182.442 48.9668 182.513 48.9932H182.512Z" fill="white"/>
<path d="M189.772 54.6085C189.475 54.757 189.282 54.8363 189.089 54.9848L188.249 55.6599C187.25 57.3418 186.347 58.4278 184.911 60.0305C184.649 60.3457 184.36 60.661 184.053 60.9762C184.01 61.0109 182.695 62.5871 182.231 62.4122C182.117 62.3775 182.091 62.2636 182.109 62.1233C182.135 61.8691 182.178 61.6232 182.249 61.4664C182.381 61.1693 182.442 60.9845 183.484 59.697C184.027 59.0319 185.157 57.9194 185.831 57.3137C186.26 56.9291 186.697 56.5693 187.171 56.2012L187.618 55.8332C187.96 55.2637 188.231 54.6778 188.363 54.0638C188.397 53.879 188.013 53.6611 187.942 53.6793C187.82 53.7139 187.696 53.7057 187.6 53.7222C187.329 53.7667 187.171 53.836 186.882 53.9499C186.506 54.1166 185.839 54.3527 185.218 54.6068C184.763 54.7901 184.439 54.9485 184.018 55.0442C183.634 55.1317 183.274 55.2192 183.046 55.097C182.837 54.9749 182.818 54.7901 182.818 54.6233C182.827 54.422 182.993 54.2289 183.256 53.9483C183.756 53.4399 184.692 52.8177 185.69 52.4249C186.549 52.0914 186.943 51.9693 187.399 51.8208C187.592 51.7597 188.169 51.8125 188.353 51.829C188.475 51.8554 188.493 51.8901 188.536 51.9957L188.58 52.3984C188.58 52.5998 188.528 52.6873 188.379 52.7665C188.204 52.8457 187.985 52.8887 187.844 52.7665C187.696 52.6262 187.275 52.3638 186.951 52.5206C186.663 52.6609 186.514 52.6081 185.945 52.8804C185.279 53.1874 184.763 53.5373 184.385 53.836C184.226 53.9582 184.165 54.0457 184.061 54.1513C184.009 54.2124 183.966 54.2833 183.939 54.3444C183.921 54.3873 183.905 54.4319 184.045 54.4401C184.228 54.4484 184.378 54.422 184.535 54.3873C184.755 54.3444 184.807 54.318 185.07 54.247C185.57 54.115 185.963 53.9582 186.349 53.7915C186.786 53.6083 187.173 53.468 187.734 53.2831C188.171 53.1164 189.013 52.9233 189.196 53.4317C189.31 53.7552 188.968 54.4302 188.679 54.9204L189.013 54.7273C189.214 54.6052 189.495 54.4302 190.099 54.1579C190.284 54.0523 190.406 53.9648 190.642 53.8773C190.904 53.7717 191.053 53.6677 191.23 53.6231C191.282 53.6149 191.282 53.605 191.378 53.605C191.492 53.605 191.675 53.7634 191.667 53.8938C191.659 53.973 191.598 54.0605 191.492 54.1216C191.334 54.2091 191.23 54.1397 191.01 54.2173C190.896 54.252 190.8 54.2355 190.625 54.2619C190.52 54.2965 190.398 54.323 190.292 54.3576C190.231 54.3758 190.178 54.4022 190.082 54.4451C189.95 54.5062 189.916 54.5326 189.775 54.6035L189.772 54.6085ZM187.128 56.5792L187.014 56.6848C186.068 57.4903 184.885 58.8751 184.089 59.7944C183.565 60.4167 183.494 60.7402 183.485 60.8376C184.187 60.1542 183.896 60.5669 184.519 59.839C185.586 58.6044 186.296 57.8419 187.13 56.5809L187.128 56.5792Z" fill="white"/>
<path d="M192.095 52.4102C192.2 52.2699 192.375 52.1213 192.558 52.0768C192.855 51.9629 193.11 52.1296 193.083 52.4448C192.951 52.8475 192.278 53.478 192.005 53.828C191.918 53.9336 191.883 54.0211 191.918 54.0293C191.944 54.0293 191.987 54.0739 192.137 54.0029C192.288 53.9319 192.497 53.8197 192.558 53.7834C192.839 53.6167 193.575 53.1611 194.293 52.7403C194.985 52.3639 195.546 52.1015 195.896 52.1444C196.473 52.2137 196.457 52.6264 196.359 53.1611C196.307 53.4582 196.272 53.7735 196.264 53.9765C196.264 54.432 196.675 54.6252 197.079 54.6252C197.587 54.6252 198.21 54.371 198.603 54.1779V54.1696C198.621 54.1614 198.645 54.1614 198.664 54.1614C198.91 54.1432 198.918 54.3017 198.716 54.4155C198.015 54.7836 197.183 55.2738 196.561 55.221C196.193 55.1946 195.772 54.8612 195.729 54.371C195.703 54.0986 195.703 53.8709 195.737 53.582C195.755 53.4071 195.737 53.275 195.719 53.1793C195.701 53.1001 195.632 53.0126 195.571 52.9697C195.518 52.935 195.404 52.8641 195.255 52.8905C194.966 52.9433 194.564 53.0489 194.1 53.2932C193.644 53.5391 193.197 53.8808 192.829 54.1085C192.522 54.3017 192.024 54.739 191.735 54.8876C191.568 54.9668 191.454 55.0625 191.271 55.0972C191.192 55.1236 191.131 55.15 191.061 55.1319C190.825 55.1055 190.728 55.018 190.64 54.8084C190.622 54.5806 190.781 54.3528 190.974 54.0904C191.07 53.9583 191.183 53.7834 191.271 53.6695C191.438 53.4236 191.613 53.1958 191.753 53.0308C192.007 52.6544 191.946 52.6363 192.068 52.4613C192.086 52.4432 192.086 52.4267 192.095 52.4168V52.4085V52.4102Z" fill="white"/>
</g>
<defs>
<linearGradient id="paint0_linear_96_6" x1="50.6703" y1="2.72572" x2="120.619" y2="20.115" gradientUnits="userSpaceOnUse">
<stop offset="0.161582" stop-color="#F051A3"/>
<stop offset="0.539604" stop-color="#2067F4"/>
<stop offset="1" stop-color="#4CBAFF" stop-opacity="0"/>
</linearGradient>
<linearGradient id="paint1_linear_96_6" x1="15.9998" y1="51.5958" x2="34.5352" y2="85.4276" gradientUnits="userSpaceOnUse">
<stop offset="0.161582" stop-color="#F051A3"/>
<stop offset="0.539604" stop-color="#2067F4"/>
<stop offset="1" stop-color="#4CBAFF" stop-opacity="0"/>
</linearGradient>
<linearGradient id="paint2_linear_96_6" x1="70.2456" y1="41.2679" x2="71.7982" y2="67.541" gradientUnits="userSpaceOnUse">
<stop offset="0.161582" stop-color="#F051A3"/>
<stop offset="0.539604" stop-color="#2067F4"/>
<stop offset="1" stop-color="#4CBAFF" stop-opacity="0"/>
</linearGradient>
<clipPath id="clip0_96_6">
<rect width="222" height="75.8084" fill="white" transform="translate(0 0.0958252)"/>
</clipPath>
</defs>
</svg>
